<svg width="83" height="15" viewBox="0 0 83 15" fill="none" xmlns="http://www.w3.org/2000/svg"><path d="M43.846 5.665c0 1.413-.672 2.725-1.386 3.714a10.648 10.648 0 01-1.076 1.264 10.658 10.658 0 01-1.076-1.265c-.714-.988-1.387-2.3-1.387-3.713 0-1.412.673-2.724 1.387-3.713A10.658 10.658 0 0141.384.688l.104.105c.265.274.619.67.972 1.16.714.988 1.386 2.3 1.386 3.712z" stroke="#fff"/><path d="M40.107 5.67c.857 1 1.202 2.475 1.318 3.77a13.176 13.176 0 01.033 1.846 8.272 8.272 0 01-1.58-.038c-1.108-.136-2.37-.539-3.226-1.54-.857-1-1.201-2.475-1.318-3.77a13.176 13.176 0 01-.033-1.846 8.277 8.277 0 011.58.038c1.109.136 2.37.54 3.226 1.54zm3.376 0c-.857 1-1.202 2.475-1.318 3.77a13.193 13.193 0 00-.033 1.846 8.272 8.272 0 001.58-.038c1.108-.136 2.37-.539 3.226-1.54.856-1 1.201-2.475 1.318-3.77a13.176 13.176 0 00.032-1.846 8.275 8.275 0 00-1.58.038c-1.108.136-2.37.54-3.225 1.54zM28.358 8.083H0m83 0H54.642" stroke="#fff"/></svg>