<svg width="83" height="15" viewBox="0 0 83 15" fill="none" xmlns="http://www.w3.org/2000/svg">
<path d="M43.8464 5.66549C43.8464 7.07784 43.1738 8.39048 42.4598 9.37876C42.1067 9.86766 41.7528 10.2641 41.4877 10.5378C41.4513 10.5754 41.4166 10.6106 41.3839 10.6433C41.3512 10.6106 41.3165 10.5754 41.2801 10.5378C41.015 10.2641 40.6611 9.86766 40.3079 9.37876C39.594 8.39048 38.9214 7.07784 38.9214 5.66549C38.9214 4.25314 39.594 2.9405 40.3079 1.95222C40.6611 1.46332 41.015 1.06688 41.2801 0.793181C41.3165 0.755615 41.3512 0.720414 41.3839 0.687657C41.4166 0.720414 41.4513 0.755615 41.4877 0.793181C41.7528 1.06688 42.1067 1.46332 42.4598 1.95222C43.1738 2.9405 43.8464 4.25314 43.8464 5.66549Z" stroke="white"/>
<path d="M40.1073 5.66997C40.9636 6.67078 41.3085 8.14481 41.4249 9.43955C41.4823 10.0777 41.4822 10.6502 41.4676 11.063C41.4647 11.1441 41.4613 11.2188 41.4577 11.2864C41.3998 11.2907 41.3359 11.2947 41.2665 11.298C40.9133 11.315 40.4234 11.3152 39.8774 11.2481C38.7695 11.1121 37.5082 10.709 36.6518 9.70824C35.7955 8.70744 35.4506 7.2334 35.3342 5.93866C35.2768 5.30056 35.2769 4.72802 35.2915 4.31523C35.2944 4.23415 35.2978 4.15942 35.3014 4.09176C35.3593 4.08753 35.4232 4.08354 35.4926 4.08019C35.8458 4.06317 36.3357 4.06304 36.8818 4.13009C37.9896 4.26613 39.2509 4.66916 40.1073 5.66997Z" stroke="white"/>
<path d="M43.4826 5.66997C42.6262 6.67078 42.2814 8.14481 42.1649 9.43955C42.1076 10.0777 42.1077 10.6502 42.1223 11.063C42.1251 11.1441 42.1285 11.2188 42.1322 11.2864C42.19 11.2907 42.254 11.2947 42.3234 11.298C42.6766 11.315 43.1665 11.3152 43.7125 11.2481C44.8204 11.1121 46.0816 10.709 46.938 9.70824C47.7944 8.70744 48.1392 7.2334 48.2556 5.93866C48.313 5.30056 48.3129 4.72802 48.2983 4.31523C48.2955 4.23415 48.2921 4.15942 48.2884 4.09176C48.2305 4.08753 48.1666 4.08354 48.0972 4.08019C47.744 4.06317 47.2541 4.06304 46.7081 4.13009C45.6002 4.26613 44.3389 4.66916 43.4826 5.66997Z" stroke="white"/>
<path d="M28.3583 8.08264H0" stroke="white"/>
<path d="M82.9999 8.08344L54.6416 8.08344" stroke="white"/>
</svg>
